<svg xmlns="http://www.w3.org/2000/svg" viewBox="0 0 1440 320"><path fill="#000b76" fill-opacity="1" d="M0,288L10.4,261.3C20.9,235,42,181,63,186.7C83.5,192,104,256,125,272C146.1,288,167,256,188,213.3C208.7,171,230,117,250,85.3C271.3,53,292,43,313,80C333.9,117,355,203,376,234.7C396.5,267,417,245,438,202.7C459.1,160,480,96,501,69.3C521.7,43,543,53,563,48C584.3,43,605,21,626,21.3C647,21,668,43,689,74.7C709.6,107,730,149,751,154.7C772.2,160,793,128,814,101.3C834.8,75,856,53,877,58.7C897.4,64,918,96,939,101.3C960,107,981,85,1002,69.3C1022.6,53,1043,43,1064,64C1085.2,85,1106,139,1127,144C1147.8,149,1169,107,1190,128C1210.4,149,1231,235,1252,229.3C1273,224,1294,128,1315,85.3C1335.7,43,1357,53,1377,69.3C1398.3,85,1419,107,1430,117.3L1440,128L1440,0L1429.6,0C1419.1,0,1398,0,1377,0C1356.5,0,1336,0,1315,0C1293.9,0,1273,0,1252,0C1231.3,0,1210,0,1190,0C1168.7,0,1148,0,1127,0C1106.1,0,1085,0,1064,0C1043.5,0,1023,0,1002,0C980.9,0,960,0,939,0C918.3,0,897,0,877,0C855.7,0,835,0,814,0C793,0,772,0,751,0C730.4,0,710,0,689,0C667.8,0,647,0,626,0C605.2,0,584,0,563,0C542.6,0,522,0,501,0C480,0,459,0,438,0C417.4,0,397,0,376,0C354.8,0,334,0,313,0C292.2,0,271,0,250,0C229.6,0,209,0,188,0C167,0,146,0,125,0C104.3,0,83,0,63,0C41.7,0,21,0,10,0L0,0Z"></path></svg>